<svg xmlns="http://www.w3.org/2000/svg" viewBox="0 0 32 32">
    <rect width="32" height="32" fill="white" rx="4"/>
    <!-- Simplified M + $ icon for small size -->
    <g transform="translate(16, 16) scale(0.7)">
        <!-- M letter -->
        <path fill="#16a34a" d="M-8,-6 L-8,6 L-6,6 L-6,-1 L-3,6 L0,-1 L0,6 L2,6 L2,-6 L-1,-6 L-3,1 L-5,-6 Z"/>
        <!-- Dollar sign -->
        <g transform="translate(6, -6) scale(0.8)">
            <rect x="-0.5" y="-3" width="1" height="12" fill="#16a34a"/>
            <path fill="#16a34a" d="M-2,0 Q-2,-1 -1,-1 L1,-1 Q2,-1 2,0 L2,1 L1,1 Q1,0.5 0.5,0.5 L-0.5,0.5 Q-1,0.5 -1,1 Q-1,1.5 -0.5,1.5 L0.5,1.5 Q2,1.5 2,3 Q2,4 1,4 L-1,4 Q-2,4 -2,3 L-2,2.5 L-1,2.5 Q-1,3 -0.5,3 L0.5,3 Q1,3 1,2.5 Q1,2 0.5,2 L-0.5,2 Q-2,2 -2,0.5 Z"/>
        </g>
    </g>
</svg>
